<!-- Generated by readme-aura https://github.com/collectioneur/readme-aura -->
<svg width="800" height="180" viewBox="0 0 800 180" xmlns="http://www.w3.org/2000/svg"><defs><clipPath id="satori_bc-id"><path x="0" y="0" width="800" height="180" d="M16,0 h768 a16,16 0 0 1 16,16 v148 a16,16 0 0 1 -16,16 h-768 a16,16 0 0 1 -16,-16 v-148 a16,16 0 0 1 16,-16"/></clipPath></defs><clipPath id="satori_cp-id"><path x="0" y="0" width="800" height="180" d="M16,0 h768 a16,16 0 0 1 16,16 v148 a16,16 0 0 1 -16,16 h-768 a16,16 0 0 1 -16,-16 v-148 a16,16 0 0 1 16,-16"/></clipPath><mask id="satori_om-id"><rect x="1" y="1" width="798" height="178" fill="#fff"/><path width="800" height="180" fill="none" stroke="#000" stroke-width="2" d="M4.686,4.686 A16,16 0 0 1 16,0 h768 a16,16 0 0 1 16,16 v148 a16,16 0 0 1 -16,16 h-768 a16,16 0 0 1 -16,-16 v-148 A16,16 0 0 1 4.686,4.686"/></mask><path x="0" y="0" width="800" height="180" fill="#06060a" d="M16,0 h768 a16,16 0 0 1 16,16 v148 a16,16 0 0 1 -16,16 h-768 a16,16 0 0 1 -16,-16 v-148 a16,16 0 0 1 16,-16"/><path width="800" height="180" clip-path="url(#satori_bc-id)" fill="none" stroke="rgba(110,80,220,0.15)" stroke-width="2" d="M4.686,4.686 A16,16 0 0 1 16,0 h768 a16,16 0 0 1 16,16 v148 a16,16 0 0 1 -16,16 h-768 a16,16 0 0 1 -16,-16 v-148 A16,16 0 0 1 4.686,4.686"/><clipPath id="satori_cp-id-0" clip-path="url(#satori_cp-id)"><rect x="1" y="1" width="800" height="180"/></clipPath><mask id="satori_om-id-0"><rect x="1" y="1" width="800" height="180" fill="#fff" mask="url(#satori_om-id)"/></mask><svg x="1" y="1" width="800" height="180" preserveAspectRatio="none" clip-path="url(#satori_cp-id-0)" mask="url(#satori_om-id-0)"><defs><radialGradient id="lng1" cx="50%" cy="50%" r="50%"><stop offset="0%" stop-color="rgba(80,40,200,0.4)"></stop><stop offset="100%" stop-color="rgba(80,40,200,0)"></stop></radialGradient><radialGradient id="lng2" cx="50%" cy="50%" r="50%"><stop offset="0%" stop-color="rgba(0,160,220,0.35)"></stop><stop offset="100%" stop-color="rgba(0,160,220,0)"></stop></radialGradient></defs><ellipse id="lang-g1" cx="650" cy="90" rx="180" ry="100" fill="url(#lng1)"></ellipse><ellipse id="lang-g2" cx="150" cy="100" rx="160" ry="90" fill="url(#lng2)"></ellipse><style>

      @keyframes lang-drift-r { 0%, 100% { transform: translate(0, 0); opacity: 0.6; } 50% { transform: translate(30px, -15px); opacity: 1; } }
      @keyframes lang-drift-l { 0%, 100% { transform: translate(0, 0); opacity: 0.55; } 50% { transform: translate(-25px, 12px); opacity: 0.9; } }
      #lang-g1 { animation: lang-drift-r 8s ease-in-out infinite; }
      #lang-g2 { animation: lang-drift-l 7s ease-in-out infinite 0.3s; }
    
</style>
</svg><mask id="satori_om-id-0-0"><rect x="1" y="1" width="0" height="180" fill="#fff" mask="url(#satori_om-id)"/></mask><mask id="satori_om-id-0-0-0"><rect x="1" y="1" width="0" height="180" fill="#fff" mask="url(#satori_om-id)"/></mask><mask id="satori_om-id-0-0-0-0"><rect x="1" y="1" width="0" height="180" fill="#fff" mask="url(#satori_om-id)"/></mask><mask id="satori_om-id-0-0-0-1"><rect x="1" y="1" width="0" height="180" fill="#fff" mask="url(#satori_om-id)"/></mask><mask id="satori_om-id-0-0-1"><rect x="1" y="1" width="0" height="180" fill="#fff" mask="url(#satori_om-id)"/></mask><mask id="satori_om-id-0-0-1-0"><rect x="1" y="1" width="0" height="180" fill="#fff" mask="url(#satori_om-id)"/></mask><mask id="satori_om-id-0-0-1-1"><rect x="1" y="1" width="0" height="180" fill="#fff" mask="url(#satori_om-id)"/></mask><mask id="satori_om-id-0-1"><rect x="1" y="1" width="0" height="180" fill="#fff" mask="url(#satori_om-id)"/></mask><mask id="satori_om-id-0-2"><rect x="1" y="1" width="0" height="180" fill="#fff" mask="url(#satori_om-id)"/></mask><mask id="satori_om-id-1"><rect x="25" y="25" width="750" height="12" fill="#fff" mask="url(#satori_om-id)"/></mask><g mask="url(#satori_om-id)" clip-path="url(#satori_cp-id)"><path fill="rgba(120,200,255,0.7)" d="M27.1 35L25.7 35L25.7 27.7L27.9 27.7L29.1 31.1Q29.2 31.3 29.3 31.7Q29.4 32.0 29.5 32.5L29.5 32.5Q29.6 32.9 29.7 33.3L29.7 33.3Q29.8 32.9 29.8 32.5L29.8 32.5Q29.9 32.1 30.0 31.7Q30.1 31.3 30.2 31.1L30.2 31.1L31.4 27.7L33.7 27.7L33.7 35L32.2 35L32.2 31.6Q32.2 31.3 32.2 31.0Q32.2 30.6 32.2 30.2Q32.2 29.8 32.2 29.4L32.2 29.4Q32.2 29.2 32.2 29.0L32.2 29.0Q32.2 29.2 32.1 29.4L32.1 29.4Q32.0 29.9 31.9 30.3Q31.8 30.7 31.7 31.0Q31.6 31.3 31.5 31.6L31.5 31.6L30.3 35L29.0 35L27.8 31.6Q27.7 31.3 27.6 31.0Q27.5 30.7 27.4 30.3Q27.3 29.9 27.2 29.4L27.2 29.4Q27.1 29.2 27.1 29.1L27.1 29.1Q27.1 29.2 27.1 29.4L27.1 29.4Q27.1 29.8 27.1 30.2Q27.1 30.6 27.1 31.0Q27.1 31.3 27.1 31.6L27.1 31.6L27.1 35ZM41.2 35.1L41.2 35.1Q40.2 35.1 39.4 34.7Q38.7 34.2 38.2 33.4Q37.8 32.5 37.8 31.4L37.8 31.4Q37.8 30.2 38.2 29.3Q38.7 28.5 39.4 28.1Q40.2 27.6 41.2 27.6L41.2 27.6Q42.1 27.6 42.9 28.1Q43.7 28.5 44.1 29.3Q44.6 30.2 44.6 31.4L44.6 31.4Q44.6 32.5 44.1 33.4Q43.7 34.2 42.9 34.7Q42.1 35.1 41.2 35.1ZM41.2 33.8L41.2 33.8Q41.7 33.8 42.2 33.5Q42.6 33.2 42.8 32.7Q43.0 32.1 43.0 31.4L43.0 31.4Q43.0 30.6 42.8 30.0Q42.6 29.5 42.2 29.2Q41.7 29.0 41.2 29.0L41.2 29.0Q40.6 29.0 40.2 29.2Q39.8 29.5 39.5 30.0Q39.3 30.6 39.3 31.4L39.3 31.4Q39.3 32.1 39.5 32.7Q39.8 33.2 40.2 33.5Q40.6 33.8 41.2 33.8ZM51.3 35.1L51.3 35.1Q50.5 35.1 49.8 34.8Q49.2 34.6 48.8 34.0Q48.5 33.5 48.4 32.7L48.4 32.7L49.9 32.7Q49.9 33.1 50.1 33.4Q50.3 33.6 50.6 33.7Q50.9 33.8 51.3 33.8L51.3 33.8Q51.7 33.8 52.0 33.7Q52.3 33.6 52.5 33.4Q52.7 33.2 52.7 32.9L52.7 32.9Q52.7 32.7 52.5 32.5Q52.4 32.3 52.1 32.2Q51.8 32.1 51.4 32.0L51.4 32.0L50.6 31.8Q49.7 31.6 49.2 31.1Q48.6 30.6 48.6 29.8L48.6 29.8Q48.6 29.2 49.0 28.7Q49.3 28.2 50.0 27.9Q50.6 27.6 51.4 27.6L51.4 27.6Q52.2 27.6 52.8 27.9Q53.4 28.2 53.7 28.7Q54.0 29.2 54.1 29.8L54.1 29.8L52.6 29.8Q52.6 29.4 52.2 29.1Q51.9 28.9 51.4 28.9L51.4 28.9Q51.0 28.9 50.7 29.0Q50.4 29.1 50.3 29.3Q50.2 29.5 50.2 29.7L50.2 29.7Q50.2 30.0 50.3 30.2Q50.5 30.3 50.8 30.5Q51.0 30.6 51.3 30.6L51.3 30.6L52.0 30.8Q52.4 30.9 52.8 31.1Q53.2 31.3 53.5 31.5Q53.8 31.8 54.0 32.1Q54.2 32.5 54.2 32.9L54.2 32.9Q54.2 33.6 53.8 34.1Q53.5 34.6 52.9 34.8Q52.2 35.1 51.3 35.1ZM60.2 29.0L57.9 29.0L57.9 27.7L63.9 27.7L63.9 29.0L61.7 29.0L61.7 35L60.2 35L60.2 29.0Z M76.3 35.1L76.3 35.1Q75.4 35.1 74.7 34.8Q74.0 34.4 73.6 33.8Q73.3 33.2 73.3 32.4L73.3 32.4L73.3 27.7L74.8 27.7L74.8 32.3Q74.8 32.7 74.9 33.1Q75.1 33.4 75.5 33.6Q75.8 33.8 76.3 33.8L76.3 33.8Q76.7 33.8 77.1 33.6Q77.4 33.4 77.6 33.1Q77.8 32.7 77.8 32.3L77.8 32.3L77.8 27.7L79.3 27.7L79.3 32.4Q79.3 33.2 78.9 33.8Q78.5 34.4 77.8 34.8Q77.2 35.1 76.3 35.1ZM86.3 35.1L86.3 35.1Q85.4 35.1 84.7 34.8Q84.1 34.6 83.7 34.0Q83.4 33.5 83.3 32.7L83.3 32.7L84.8 32.7Q84.8 33.1 85.0 33.4Q85.2 33.6 85.5 33.7Q85.8 33.8 86.2 33.8L86.2 33.8Q86.6 33.8 86.9 33.7Q87.2 33.6 87.4 33.4Q87.6 33.2 87.6 32.9L87.6 32.9Q87.6 32.7 87.4 32.5Q87.3 32.3 87.0 32.2Q86.7 32.1 86.3 32.0L86.3 32.0L85.5 31.8Q84.6 31.6 84.1 31.1Q83.5 30.6 83.5 29.8L83.5 29.8Q83.5 29.2 83.9 28.7Q84.3 28.2 84.9 27.9Q85.5 27.6 86.3 27.6L86.3 27.6Q87.1 27.6 87.7 27.9Q88.3 28.2 88.6 28.7Q89.0 29.2 89.0 29.8L89.0 29.8L87.5 29.8Q87.5 29.4 87.2 29.1Q86.8 28.9 86.3 28.9L86.3 28.9Q85.9 28.9 85.6 29.0Q85.3 29.1 85.2 29.3Q85.1 29.5 85.1 29.7L85.1 29.7Q85.1 30.0 85.2 30.2Q85.4 30.3 85.7 30.5Q85.9 30.6 86.2 30.6L86.2 30.6L86.9 30.8Q87.4 30.9 87.7 31.1Q88.1 31.3 88.4 31.5Q88.7 31.8 88.9 32.1Q89.1 32.5 89.1 32.9L89.1 32.9Q89.1 33.6 88.7 34.1Q88.4 34.6 87.8 34.8Q87.1 35.1 86.3 35.1ZM98.0 35L93.1 35L93.1 27.7L98.0 27.7L98.0 29.0L94.6 29.0L94.6 30.7L97.8 30.7L97.8 31.9L94.6 31.9L94.6 33.8L98.0 33.8L98.0 35ZM104.8 35L104.8 35L102.2 35L102.2 27.7L104.8 27.7Q105.9 27.7 106.7 28.2Q107.5 28.6 107.9 29.4Q108.3 30.2 108.3 31.4L108.3 31.4Q108.3 32.5 107.9 33.3Q107.5 34.1 106.7 34.6Q105.9 35 104.8 35ZM103.7 29.0L103.7 33.7L104.7 33.7Q105.4 33.7 105.9 33.5Q106.4 33.2 106.6 32.7Q106.8 32.2 106.8 31.4L106.8 31.4Q106.8 30.5 106.6 30.0Q106.3 29.5 105.9 29.3Q105.4 29.0 104.7 29.0L104.7 29.0L103.7 29.0Z M122.4 35L117.8 35L117.8 27.7L119.3 27.7L119.3 33.8L122.4 33.8L122.4 35ZM127.7 35L126.0 35L128.5 27.7L130.5 27.7L133.0 35L131.4 35L130.8 33.3L128.2 33.3L127.7 35ZM128.6 32.1L130.4 32.1L130.2 31.5Q130.0 30.8 129.8 30L129.8 30Q129.6 29.5 129.5 28.9L129.5 28.9Q129.3 29.5 129.2 30.0L129.2 30.0Q129.0 30.8 128.8 31.5L128.8 31.5L128.6 32.1ZM138.4 35L136.9 35L136.9 27.7L138.6 27.7L140.9 31.4Q141.1 31.7 141.2 32.0Q141.4 32.4 141.6 32.8L141.6 32.8Q141.7 33.0 141.8 33.2L141.8 33.2Q141.8 33.0 141.8 32.8L141.8 32.8Q141.7 32.3 141.7 31.9Q141.7 31.5 141.7 31.2L141.7 31.2L141.7 27.7L143.2 27.7L143.2 35L141.6 35L139.5 31.7Q139.2 31.3 139.0 30.9Q138.9 30.6 138.6 30.1L138.6 30.1Q138.5 29.9 138.3 29.6L138.3 29.6Q138.4 29.9 138.4 30.1L138.4 30.1Q138.4 30.6 138.4 31.0Q138.4 31.4 138.4 31.7L138.4 31.7L138.4 35ZM150.8 35.1L150.8 35.1Q149.7 35.1 149.0 34.6Q148.2 34.2 147.8 33.4Q147.3 32.5 147.3 31.4L147.3 31.4Q147.3 30.2 147.8 29.4Q148.2 28.5 149.0 28.1Q149.8 27.6 150.7 27.6L150.7 27.6Q151.3 27.6 151.9 27.8Q152.4 28.0 152.8 28.3Q153.2 28.6 153.5 29.1Q153.8 29.5 153.8 30.1L153.8 30.1L152.3 30.1Q152.2 29.8 152.1 29.6Q152.0 29.4 151.8 29.2Q151.6 29.1 151.3 29.0Q151.1 29.0 150.8 29.0L150.8 29.0Q150.2 29.0 149.8 29.2Q149.3 29.5 149.1 30.0Q148.9 30.6 148.9 31.4Q148.9 32.1 149.1 32.7Q149.3 33.2 149.8 33.5Q150.2 33.8 150.8 33.8L150.8 33.8Q151.3 33.8 151.7 33.6Q152.1 33.4 152.3 33.0L152.3 33.0Q152.5 32.7 152.5 32.3L152.5 32.3L150.9 32.3L150.9 31.1L153.9 31.1L153.9 32.0Q153.9 33.0 153.5 33.7Q153.1 34.4 152.4 34.7Q151.7 35.1 150.8 35.1ZM161.0 35.1L161.0 35.1Q160.1 35.1 159.5 34.8Q158.8 34.4 158.4 33.8Q158.0 33.2 158.0 32.4L158.0 32.4L158.0 27.7L159.5 27.7L159.5 32.3Q159.5 32.7 159.7 33.1Q159.9 33.4 160.3 33.6Q160.6 33.8 161.0 33.8L161.0 33.8Q161.5 33.8 161.8 33.6Q162.2 33.4 162.4 33.1Q162.6 32.7 162.6 32.3L162.6 32.3L162.6 27.7L164.1 27.7L164.1 32.4Q164.1 33.2 163.7 33.8Q163.3 34.4 162.6 34.8Q162.0 35.1 161.0 35.1ZM169.6 35L167.9 35L170.4 27.7L172.4 27.7L174.9 35L173.3 35L172.7 33.3L170.1 33.3L169.6 35ZM170.5 32.1L172.3 32.1L172.1 31.5Q171.9 30.8 171.7 30L171.7 30Q171.5 29.5 171.4 28.9L171.4 28.9Q171.3 29.5 171.1 30.0L171.1 30.0Q170.9 30.8 170.7 31.5L170.7 31.5L170.5 32.1ZM182.1 35.1L182.1 35.1Q181.0 35.1 180.3 34.6Q179.5 34.2 179.1 33.4Q178.6 32.5 178.6 31.4L178.6 31.4Q178.6 30.2 179.1 29.4Q179.5 28.5 180.3 28.1Q181.1 27.6 182.0 27.6L182.0 27.6Q182.6 27.6 183.2 27.8Q183.7 28.0 184.1 28.3Q184.5 28.6 184.8 29.1Q185.0 29.5 185.1 30.1L185.1 30.1L183.6 30.1Q183.5 29.8 183.4 29.6Q183.3 29.4 183.1 29.2Q182.9 29.1 182.6 29.0Q182.4 29.0 182.0 29.0L182.0 29.0Q181.5 29.0 181.1 29.2Q180.6 29.5 180.4 30.0Q180.1 30.6 180.1 31.4Q180.1 32.1 180.4 32.7Q180.6 33.2 181.1 33.5Q181.5 33.8 182.1 33.8L182.1 33.8Q182.6 33.8 183.0 33.6Q183.3 33.4 183.6 33.0L183.6 33.0Q183.7 32.7 183.8 32.3L183.8 32.3L182.2 32.3L182.2 31.1L185.2 31.1L185.2 32.0Q185.2 33.0 184.8 33.7Q184.4 34.4 183.7 34.7Q183.0 35.1 182.1 35.1ZM194.2 35L189.3 35L189.3 27.7L194.2 27.7L194.2 29.0L190.8 29.0L190.8 30.7L194.0 30.7L194.0 31.9L190.8 31.9L190.8 33.8L194.2 33.8L194.2 35ZM201.1 35.1L201.1 35.1Q200.2 35.1 199.6 34.8Q198.9 34.6 198.6 34.0Q198.2 33.5 198.2 32.7L198.2 32.7L199.6 32.7Q199.6 33.1 199.8 33.4Q200.0 33.6 200.3 33.7Q200.7 33.8 201.1 33.8L201.1 33.8Q201.5 33.8 201.8 33.7Q202.1 33.6 202.2 33.4Q202.4 33.2 202.4 32.9L202.4 32.9Q202.4 32.7 202.2 32.5Q202.1 32.3 201.8 32.2Q201.5 32.1 201.1 32.0L201.1 32.0L200.3 31.8Q199.4 31.6 198.9 31.1Q198.4 30.6 198.4 29.8L198.4 29.8Q198.4 29.2 198.7 28.7Q199.1 28.2 199.7 27.9Q200.3 27.6 201.1 27.6L201.1 27.6Q201.9 27.6 202.5 27.9Q203.1 28.2 203.4 28.7Q203.8 29.2 203.8 29.8L203.8 29.8L202.3 29.8Q202.3 29.4 202.0 29.1Q201.6 28.9 201.1 28.9L201.1 28.9Q200.7 28.9 200.4 29.0Q200.2 29.1 200.0 29.3Q199.9 29.5 199.9 29.7L199.9 29.7Q199.9 30.0 200.1 30.2Q200.2 30.3 200.5 30.5Q200.8 30.6 201.1 30.6L201.1 30.6L201.7 30.8Q202.2 30.9 202.6 31.1Q203.0 31.3 203.3 31.5Q203.6 31.8 203.7 32.1Q203.9 32.5 203.9 32.9L203.9 32.9Q203.9 33.6 203.6 34.1Q203.2 34.6 202.6 34.8Q202.0 35.1 201.1 35.1Z "/></g><clipPath id="satori_cp-id-2" clip-path="url(#satori_cp-id)"><path x="25" y="53" width="750" height="6" d="M28,53 h744 a3,3 0 0 1 3,3 v0 a3,3 0 0 1 -3,3 h-744 a3,3 0 0 1 -3,-3 v0 a3,3 0 0 1 3,-3"/></clipPath><mask id="satori_om-id-2"><rect x="25" y="53" width="750" height="6" fill="#fff" mask="url(#satori_om-id)"/></mask><path x="25" y="53" width="750" height="6" fill="rgba(255,255,255,0.05)" d="M28,53 h744 a3,3 0 0 1 3,3 v0 a3,3 0 0 1 -3,3 h-744 a3,3 0 0 1 -3,-3 v0 a3,3 0 0 1 3,-3" clip-path="url(#satori_cp-id)" mask="url(#satori_om-id)"/><mask id="satori_om-id-3"><rect x="25" y="75" width="750" height="0" fill="#fff" mask="url(#satori_om-id)"/></mask></svg>